<svg width="212" height="44" viewBox="0 0 212 44" fill="none" xmlns="http://www.w3.org/2000/svg">
<rect width="212" height="44" rx="6" fill="#363636"/>
<path d="M86.732 12.667C83.6026 12.667 81.1318 15.2357 81.1318 18.4897C81.1318 24.3123 86.732 31.3337 86.732 31.3337C86.732 31.3337 92.3322 24.3123 92.3322 18.4897C92.3322 15.2359 89.8616 12.667 86.732 12.667ZM86.732 22.086C84.7555 22.086 83.2731 20.3735 83.2731 18.4897C83.2731 16.4346 84.7555 14.8933 86.732 14.8933C88.5439 14.8933 90.1909 16.4346 90.1909 18.4897C90.1909 20.3735 88.5439 22.086 86.732 22.086Z" fill="white" fill-opacity="0.87"/>
<path d="M110.5 27.192C109.444 27.192 108.521 26.952 107.732 26.472C106.943 25.992 106.329 25.32 105.892 24.456C105.455 23.592 105.236 22.584 105.236 21.432C105.236 20.2907 105.46 19.2827 105.908 18.408C106.356 17.5333 106.991 16.8507 107.812 16.36C108.644 15.8587 109.625 15.608 110.756 15.608C112.036 15.608 113.103 15.9173 113.956 16.536C114.809 17.1547 115.364 18.008 115.62 19.096H113.7C113.529 18.4987 113.193 18.0293 112.692 17.688C112.191 17.3467 111.545 17.176 110.756 17.176C109.583 17.176 108.66 17.5547 107.988 18.312C107.316 19.0693 106.98 20.1147 106.98 21.448C106.98 22.7813 107.311 23.8213 107.972 24.568C108.633 25.3147 109.513 25.688 110.612 25.688C111.721 25.688 112.553 25.3733 113.108 24.744C113.673 24.1147 114.004 23.2773 114.1 22.232H111.06V20.92H115.812V27H114.26L114.116 25.352C113.743 25.9387 113.273 26.392 112.708 26.712C112.143 27.032 111.407 27.192 110.5 27.192ZM120.518 27V17.176H117.206V15.8H125.51V17.176H122.214V27H120.518ZM127.122 27V15.8H128.818V25.656H133.906V27H127.122Z" fill="white" fill-opacity="0.87"/>
</svg>
