<svg width="24" height="24" viewBox="0 0 24 24" fill="none" xmlns="http://www.w3.org/2000/svg">
<path d="M13.8185 7.90028C10.8905 7.90028 10.6745 9.00428 9.2585 9.00428H3.11603C2.76929 9.00428 2.41625 9.08552 2.1675 9.32708C0.879311 10.5781 0.877761 13.3521 2.16285 14.6235C2.41376 14.8717 2.77293 14.9563 3.12587 14.9563H9.2825C10.6985 14.9563 10.9145 16.0603 13.8425 16.0603V7.90028H13.8185ZM20.1545 9.14828L21.3065 8.18828C21.8825 7.70828 21.8825 7.70828 21.4025 7.15628C20.9225 6.60428 20.9225 6.58028 20.3705 7.06028L19.2185 8.02028C18.6425 8.50028 18.6425 8.50028 19.1225 9.05228C19.6025 9.60428 19.6025 9.62828 20.1545 9.14828ZM20.0585 12.7243H22.0025C22.7465 12.7243 22.7465 12.7243 22.7465 11.9803C22.7465 11.2363 22.7465 11.2363 22.0025 11.2363H20.0585C19.3145 11.2363 19.3145 11.2363 19.3145 11.9803C19.3145 12.7243 19.3145 12.7243 20.0585 12.7243ZM20.3465 16.8763C20.9225 17.3563 20.9225 17.3563 21.3785 16.7803C21.8585 16.2043 21.8585 16.2043 21.2825 15.7483L20.1305 14.7883C19.5545 14.3083 19.5545 14.3083 19.0985 14.8843C18.6185 15.4603 18.6185 15.4603 19.1945 15.9163L20.3465 16.8763ZM13.8425 16.0603H16.2185C16.7487 16.0603 17.1785 15.6305 17.1785 15.1003V8.86028C17.1785 8.33009 16.7487 7.90028 16.2185 7.90028H13.8425V16.0603ZM7.38648 13.0843C6.76248 13.0843 6.28247 12.6043 6.28247 11.9803C6.28247 11.3563 6.76248 10.8763 7.38648 10.8763C8.01048 10.8763 8.49049 11.3563 8.49049 11.9803C8.49049 12.6043 8.01048 13.0843 7.38648 13.0843Z" fill="white" fill-opacity="0.87"/>
</svg>
