<svg width="24" height="24" viewBox="0 0 24 24" fill="none" xmlns="http://www.w3.org/2000/svg">
<path fill-rule="evenodd" clip-rule="evenodd" d="M12.2708 18.0293C12.2708 18.4361 11.8109 18.6727 11.48 18.4361L6.5591 14.9179C6.42677 14.8233 6.24551 14.9186 6.22229 15.0796C6.16936 15.4468 5.98053 15.8476 5.30608 15.8476H4.15269C2.98208 15.8476 3.00002 15.3503 3.00002 14.6919V9.31097C3.00002 8.65277 3.00003 8.20057 4.15269 8.20057H5.30608C5.97558 8.20057 6.16656 8.57118 6.22104 8.92317C6.24593 9.08397 6.42673 9.17946 6.5591 9.08483L11.48 5.56679C11.8109 5.33022 12.2708 5.56675 12.2708 5.97354L12.2708 9.94032C13.2257 9.94032 14 10.8632 14 12.0016C14 13.1401 13.2257 14.0629 12.2708 14.0629L12.2708 18.0293Z" fill="white" fill-opacity="0.87"/>
<path d="M19.6494 12.0018C19.6515 13.7527 19.0934 15.4481 18.0738 16.7893C17.9684 16.9316 17.915 17.1121 17.924 17.2956C17.9329 17.4791 18.0037 17.6522 18.1223 17.7811C18.1893 17.855 18.2694 17.9127 18.3577 17.9505C18.446 17.9883 18.5405 18.0054 18.6351 18.0007C18.7297 17.9959 18.8224 17.9695 18.9072 17.9231C18.9921 17.8766 19.0672 17.8111 19.1279 17.7309C20.3378 16.1206 21 14.0943 21 12.0023C21 9.91028 20.3378 7.88399 19.1279 6.27376C19.0674 6.19326 18.9925 6.12755 18.9078 6.08081C18.823 6.03408 18.7303 6.00735 18.6357 6.00232C18.5411 5.99728 18.4466 6.01406 18.3582 6.05159C18.2698 6.08911 18.1895 6.14657 18.1223 6.22027C18.0037 6.34919 17.9329 6.52234 17.924 6.70581C17.915 6.88929 17.9684 7.06987 18.0738 7.21212C19.0938 8.55386 19.6519 10.2502 19.6494 12.0018Z" fill="white" fill-opacity="0.87"/>
<path d="M16.9445 12.0018C16.9457 12.9678 16.6621 13.908 16.1366 14.6804C16.0385 14.8234 15.9905 15.0007 16.0016 15.1797C16.0126 15.3587 16.0819 15.5271 16.1967 15.6541C16.2647 15.7297 16.3465 15.7885 16.4367 15.8264C16.5269 15.8644 16.6233 15.8806 16.7197 15.8741C16.816 15.8677 16.91 15.8386 16.9953 15.7888C17.0806 15.7391 17.1553 15.6698 17.2145 15.5856C17.915 14.5506 18.2936 13.2933 18.2936 12.0013C18.2936 10.7093 17.915 9.45192 17.2145 8.41691C17.1553 8.33274 17.0806 8.26346 16.9953 8.21371C16.91 8.16396 16.816 8.13487 16.7197 8.12839C16.6233 8.12191 16.5269 8.13818 16.4367 8.17613C16.3465 8.21407 16.2647 8.27282 16.1967 8.34843C16.082 8.47556 16.0127 8.64423 16.0019 8.8233C15.991 9.00237 16.0392 9.17974 16.1376 9.32262C16.6637 10.0949 16.947 11.0356 16.9445 12.0018Z" fill="white" fill-opacity="0.87"/>
</svg>
