<svg width="16" height="12" viewBox="0 0 16 12" fill="none" xmlns="http://www.w3.org/2000/svg">
<path d="M5.3269 3.70588H11.2536C12.1564 3.70588 12.8882 4.70301 12.8882 5.51124V10.1946C12.8882 11.1918 12.1563 12 11.2536 12H5.3269C4.42409 12 3.69231 11.0029 3.69231 10.1946V5.51124C3.69231 4.5 4.3956 3.70588 5.3269 3.70588Z" fill="white" fill-opacity="0.87"/>
<path d="M14.8257 4.85034L13.5837 5.70683V9.99719L14.8245 10.8537C15.4707 11.2996 16 10.976 16 10.1345V5.56933C16.0012 4.72507 15.472 4.40445 14.8257 4.85034Z" fill="white" fill-opacity="0.87"/>
<path d="M7.56131 0H1.63459C0.731871 0 0 0.808233 0 1.80536V6.48876C0 7.29699 0.731783 8.29412 1.63459 8.29412H3.42306V5.96933C3.42306 5.51577 3.43382 5.05214 3.60349 4.63177C3.8678 3.97695 4.34457 3.58657 5.05765 3.48238H9.1959V1.80536C9.1959 0.997128 8.46412 0 7.56131 0Z" fill="white" fill-opacity="0.87"/>
<path d="M12.3077 3.48238H9.89144V2.00095L11.1334 1.14445C11.7797 0.698569 12.3089 1.01919 12.3077 1.86345V3.48238Z" fill="white" fill-opacity="0.87"/>
</svg>
