<svg width="16" height="16" viewBox="0 0 16 16" fill="none" xmlns="http://www.w3.org/2000/svg">
<path d="M13.776 15.9984H1.37736C1.01206 15.9984 0.661723 15.8533 0.403418 15.5949C0.145114 15.3366 0 14.9863 0 14.621V2.22234C0 1.85705 0.145114 1.50671 0.403418 1.24841C0.661723 0.990102 1.01206 0.844988 1.37736 0.844988H6.88842C6.97886 0.844988 7.06841 0.862801 7.15196 0.89741C7.23552 0.932019 7.31144 0.982747 7.37539 1.0467C7.43934 1.11065 7.49007 1.18657 7.52467 1.27012C7.55928 1.35367 7.5771 1.44323 7.5771 1.53367C7.5771 1.6241 7.55928 1.71366 7.52467 1.79721C7.49007 1.88077 7.43934 1.95669 7.37539 2.02064C7.31144 2.08458 7.23552 2.13531 7.15196 2.16992C7.06841 2.20453 6.97886 2.22234 6.88842 2.22234H1.37736V14.621H13.776V9.11076C13.776 8.92811 13.8486 8.75295 13.9777 8.6238C14.1069 8.49464 14.2821 8.42208 14.4647 8.42208C14.6473 8.42208 14.8225 8.49464 14.9517 8.6238C15.0808 8.75295 15.1534 8.92811 15.1534 9.11076V14.621C15.1534 14.9863 15.0083 15.3366 14.75 15.5949C14.4917 15.8533 14.1413 15.9984 13.776 15.9984Z" fill="white" fill-opacity="0.87"/>
<path d="M15.3052 5.51313C15.1225 5.51313 14.9474 5.44057 14.8182 5.31142C14.689 5.18227 14.6165 5.0071 14.6165 4.82445V1.38024H11.1739C11.0835 1.38024 10.9939 1.36243 10.9104 1.32782C10.8268 1.29321 10.7509 1.24248 10.6869 1.17853C10.623 1.11458 10.5723 1.03866 10.5377 0.955107C10.5031 0.871552 10.4852 0.781999 10.4852 0.691561C10.4852 0.601122 10.5031 0.511569 10.5377 0.428015C10.5723 0.344461 10.623 0.268541 10.6869 0.204592C10.7509 0.140642 10.8268 0.0899141 10.9104 0.0553048C10.9939 0.0206954 11.0835 0.00288225 11.1739 0.00288226H15.3052C15.4878 0.00288226 15.663 0.0754393 15.7921 0.204592C15.9213 0.333744 15.9938 0.508912 15.9938 0.691561V4.82282C15.9941 4.91339 15.9764 5.00312 15.9419 5.08686C15.9074 5.17061 15.8567 5.24672 15.7927 5.31084C15.7287 5.37496 15.6528 5.42584 15.5691 5.46055C15.4854 5.49526 15.3957 5.51313 15.3052 5.51313Z" fill="white" fill-opacity="0.87"/>
<path d="M9.10788 7.57998C8.97091 7.5811 8.83672 7.54134 8.72246 7.4658C8.6082 7.39025 8.51906 7.28235 8.46644 7.15589C8.41382 7.02942 8.40011 6.89014 8.42706 6.75584C8.454 6.62154 8.52039 6.49833 8.61772 6.40196L14.8166 0.203032C14.9466 0.0730327 15.123 -3.62406e-09 15.3068 0C15.4907 3.62406e-09 15.667 0.0730328 15.797 0.203032C15.927 0.333031 16 0.509348 16 0.693195C16 0.877041 15.927 1.05336 15.797 1.18336L9.59723 7.38065C9.5328 7.44445 9.45641 7.4949 9.37243 7.52911C9.28846 7.56332 9.19855 7.58061 9.10788 7.57998Z" fill="white" fill-opacity="0.87"/>
</svg>
